<svg width="500" height="500" viewBox="0 0 500 500" fill="none" xmlns="http://www.w3.org/2000/svg">
<g clip-path="url(#clip0_3_2)">
<path d="M176.277 252C176.277 238 179.111 225.75 184.777 215.25C190.444 204.583 198.194 196.333 208.027 190.5C218.027 184.667 229.111 181.75 241.277 181.75C253.277 181.75 263.694 184.333 272.527 189.5C281.361 194.667 287.944 201.167 292.277 209V184H315.277V321H292.277V295.5C287.777 303.5 281.027 310.167 272.027 315.5C263.194 320.667 252.861 323.25 241.027 323.25C228.861 323.25 217.861 320.25 208.027 314.25C198.194 308.25 190.444 299.833 184.777 289C179.111 278.167 176.277 265.833 176.277 252ZM292.277 252.25C292.277 241.917 290.194 232.917 286.027 225.25C281.861 217.583 276.194 211.75 269.027 207.75C262.027 203.583 254.277 201.5 245.777 201.5C237.277 201.5 229.527 203.5 222.527 207.5C215.527 211.5 209.944 217.333 205.777 225C201.611 232.667 199.527 241.667 199.527 252C199.527 262.5 201.611 271.667 205.777 279.5C209.944 287.167 215.527 293.083 222.527 297.25C229.527 301.25 237.277 303.25 245.777 303.25C254.277 303.25 262.027 301.25 269.027 297.25C276.194 293.083 281.861 287.167 286.027 279.5C290.194 271.667 292.277 262.583 292.277 252.25Z" fill="black"/>
<path d="M127.881 321L67.6309 263.5L127.881 206.25H156.631L96.1309 263.5L156.631 321H127.881ZM342.104 206.25H370.854L431.354 263.5L370.854 321H342.104L402.604 263.5L342.104 206.25Z" fill="black"/>
</g>
<defs>
<clipPath id="clip0_3_2">
<rect width="500" height="500" fill="white"/>
</clipPath>
</defs>
</svg>
