<svg width="350" height="350" viewBox="0 0 350 350" fill="none" xmlns="http://www.w3.org/2000/svg">
<rect width="350" height="350" fill="black"/>
<path d="M70 175C70 163.954 78.9543 155 90 155H260C271.046 155 280 163.954 280 175V195H90C78.9543 195 70 186.046 70 175Z" fill="#72DDFF"/>
<path d="M92 105C92 93.9543 100.954 85 112 85H238C249.046 85 258 93.9543 258 105C258 116.046 249.046 125 238 125H92V105Z" fill="#B0B0B0"/>
<path d="M92 245C92 233.954 100.954 225 112 225H238C249.046 225 258 233.954 258 245C258 256.046 249.046 265 238 265H92V245Z" fill="#B0B0B0"/>
</svg>
